<?xml version="1.0" encoding="utf-8"?>
<svg version="1.1" xmlns="http://www.w3.org/2000/svg" viewBox="0 0 250 60">
  <!-- Logo CoomÜnity Optimizado -->
  <g>
    <!-- Símbolo principal (C dorado) -->
    <path fill="#CEA93A" d="M74.827,20.972c-3.004-0.005-5.972,0.895-8.375,2.545c-2.16,1.483-3.718,3.579-5.191,5.657l-4.651,6.589c-0.415,0.611-0.824,1.227-1.224,1.849c-1.305,1.93-3.958,5.013-7.566,5.007c-3.393-0.425-6.053-3.574-6.056-7.167c-0.002-2.85,1.807-5.593,4.399-6.669c1.953-0.811,4.333-0.627,6.211,0.481c1.782,1.051,3.023,2.897,4.224,4.682l4.382-6.208c-3.65-4.79-7.822-7.128-12.723-7.137c-8.042-0.006-14.848,6.754-14.862,14.763c-0.014,7.495,5.802,13.992,13.24,14.79c5.652,0.609,10.737-2.135,15.124-8.15l4.662-6.575c1.68-2.475,3.267-4.813,6.275-5.443c2.122-0.444,4.32,0.101,6.035,1.495c1.714,1.395,2.696,3.437,2.692,5.602c-0.007,3.852-3.17,7.085-7.051,7.207c-3.992,0.103-6.27-3.126-8.317-6.114l-4.403,6.209c1.674,2.249,3.812,4.556,6.896,5.91c5.143,2.259,11.22,1.381,15.484-2.233c4.416-3.742,6.421-9.925,6.237-15.297C89.465,27.74,82.904,21.082,74.827,20.972z"/>

    <!-- Texto "oo" -->
    <circle fill="#FFFFFF" cx="143.4" cy="35.6" r="7"/>
    <circle fill="#FFFFFF" cx="157.5" cy="35.6" r="7"/>
    <circle fill="#CEA93A" cx="143.4" cy="32.7" r="2"/>
    <circle fill="#CEA93A" cx="157.5" cy="32.7" r="2"/>

    <!-- Texto "m" -->
    <path fill="#FFFFFF" d="M113.969,50.595V35.676c0-3.856-3.137-6.994-6.994-6.994s-6.994,3.137-6.994,6.994h-7.771c0-5.375,2.925-10.33,7.635-12.931c2.164-1.2,4.63-1.834,7.13-1.834c7.972,0,14.594,6.482,14.761,14.45v15.234H113.969z"/>

    <!-- Texto "Ü" -->
    <path fill="#FFFFFF" d="M179.237,50.595V35.676c0-3.856-3.137-6.994-6.994-6.994s-6.994,3.137-6.994,6.994h-7.771c0-5.375,2.925-10.33,7.635-12.931c2.164-1.2,4.63-1.834,7.13-1.834c7.972,0,14.594,6.482,14.761,14.45v15.234H179.237z"/>

    <!-- Texto "n" -->
    <path fill="#FFFFFF" d="M189.727,50.594V20.911h7.77v29.683H189.727z M193.612,16.198c1.142,0,2.222-0.5,2.962-1.371c0.74-0.871,1.056-2.027,0.869-3.171c-0.263-1.605-1.568-2.91-3.173-3.174c-1.605,0.264-2.91,1.569-3.174,3.174c-0.188,1.144,0.128,2.3,0.868,3.171C191.39,15.698,192.47,16.198,193.612,16.198z"/>

    <!-- Texto "ity" -->
    <path fill="#FFFFFF" d="M218,42.934c-0.865,0.34-1.741,0.513-2.604,0.513c-1.049,0-1.865-0.271-2.492-0.828c-0.612-0.543-0.91-1.308-0.91-2.34V28.876h15.8l-4.023-7.967h-11.777v-5.814h-7.752v5.812h-13.042v7.968h13.042V41.82c0,4.433,1.41,7.775,4.584,9.515c1.589,0.871,3.478,1.26,5.611,1.26c1.89,0,3.741-0.276,5.534-0.953L218,49.624V42.934z"/>

    <!-- Y final -->
    <path fill="#FFFFFF" d="M245,20.911L236.753,20.911L230.466,34.885L223.409,20.911L214.823,20.911L226.364,43.918L220.398,57.161L228.715,57.161L245,20.911z"/>
  </g>
</svg>
