<?xml version="1.0" encoding="utf-8"?>
<!-- Generator: Adobe Illustrator 24.0.1, SVG Export Plug-In . SVG Version: 6.00 Build 0)  -->
<svg version="1.1" id="Capa_1" xmlns="http://www.w3.org/2000/svg" xmlns:xlink="http://www.w3.org/1999/xlink" x="0px" y="0px"
	 viewBox="0 0 250 60" enable-background="new 0 0 250 60" xml:space="preserve">
<g>
	<g>
		<g>
			<g>
				<polygon fill="#FFFFFF" points="220.398,57.161 228.715,57.161 245,20.911 236.753,20.911 230.466,34.885 223.409,20.911 
					214.823,20.911 226.364,43.918 				"/>
			</g>
			<g opacity="0.3">
				<linearGradient id="SVGID_1_" gradientUnits="userSpaceOnUse" x1="222.8407" y1="32.4124" x2="222.6478" y2="27.976">
					<stop  offset="0" style="stop-color:#FFFFFF;stop-opacity:0"/>
					<stop  offset="0.0454" style="stop-color:#F7F7F7;stop-opacity:0.0454"/>
					<stop  offset="0.5073" style="stop-color:#ADABAA;stop-opacity:0.5073"/>
					<stop  offset="0.8367" style="stop-color:#7F7B7A;stop-opacity:0.8367"/>
					<stop  offset="1" style="stop-color:#6D6968"/>
				</linearGradient>
				<polygon fill="url(#SVGID_1_)" points="230.466,34.885 223.409,20.911 214.823,20.911 226.364,43.918 				"/>
			</g>
			<path fill="#FFFFFF" d="M218,42.934l-0.36,0.141c-0.865,0.34-1.741,0.513-2.604,0.513c-1.049,0-1.865-0.271-2.492-0.828
				c-0.612-0.543-0.91-1.308-0.91-2.34l0.004-11.543h15.8l-4.023-7.967h-11.777v-5.814h-7.752v5.812h-13.042v7.968h13.042V41.82
				c0,1.638,0.236,3.038,0.703,4.161c0.471,1.136,1.122,2.06,1.933,2.748c0.805,0.683,1.73,1.172,2.749,1.454
				c0.994,0.274,2.051,0.412,3.142,0.412c0.945,0,1.907-0.094,2.86-0.278c0.934-0.182,1.834-0.409,2.674-0.675L218,49.624V42.934z"
				/>
			<linearGradient id="SVGID_2_" gradientUnits="userSpaceOnUse" x1="195.0206" y1="24.8827" x2="210.0667" y2="24.8827">
				<stop  offset="0.0587" style="stop-color:#6D6968"/>
				<stop  offset="0.7626" style="stop-color:#FFFFFF;stop-opacity:0"/>
			</linearGradient>
			<rect x="189.756" y="20.91" opacity="0.3" fill="url(#SVGID_2_)" width="15.046" height="7.946"/>
			<path fill="#FFFFFF" d="M189.727,50.594V20.911h7.77v29.683H189.727z M193.612,16.198c1.142,0,2.222-0.5,2.962-1.371
				c0.74-0.871,1.056-2.027,0.869-3.171c-0.263-1.605-1.568-2.91-3.173-3.174c-0.219-0.036-0.44-0.054-0.658-0.054
				c-1.142,0-2.222,0.5-2.963,1.372c-0.74,0.871-1.056,2.027-0.868,3.171c0.264,1.605,1.569,2.91,3.174,3.174
				C193.173,16.179,193.394,16.198,193.612,16.198C193.611,16.198,193.611,16.198,193.612,16.198z"/>
		</g>
		<path fill="#CEA93A" d="M74.827,20.972c-0.059-0.001-0.118-0.002-0.176-0.002c-3.004-0.005-5.972,0.895-8.375,2.545
			c-2.16,1.483-3.718,3.579-5.191,5.657l-4.651,6.589c-0.415,0.611-0.824,1.227-1.224,1.849c-0.078,0.121-0.156,0.24-0.237,0.358
			c-1.305,1.93-3.958,5.013-7.566,5.007c-0.258,0-0.521-0.016-0.789-0.05c-3.393-0.425-6.053-3.574-6.056-7.167
			c-0.002-2.85,1.807-5.593,4.399-6.669c1.953-0.811,4.333-0.627,6.211,0.481c1.782,1.051,3.023,2.897,4.224,4.682
			c0.09,0.133,0.178,0.26,0.267,0.392l4.382-6.208c0.083-0.117,0.166-0.232,0.25-0.348c-3.65-4.79-7.822-7.128-12.723-7.137
			c-0.005,0-0.01,0-0.015,0c-8.042-0.006-14.848,6.754-14.862,14.763c-0.014,7.495,5.802,13.992,13.24,14.79
			c5.652,0.609,10.737-2.135,15.124-8.15l0,0l4.662-6.575c0,0,0,0,0,0c0.392-0.535,0.77-1.091,1.136-1.631
			c1.68-2.475,3.267-4.813,6.275-5.443c2.122-0.444,4.32,0.101,6.035,1.495c1.714,1.395,2.696,3.437,2.692,5.602
			c-0.007,3.852-3.17,7.085-7.051,7.207c-3.992,0.103-6.27-3.126-8.317-6.114v0l-4.403,6.209c-0.083,0.114-0.168,0.219-0.252,0.331
			c1.674,2.249,3.812,4.556,6.896,5.91c5.143,2.259,11.22,1.381,15.484-2.233c1.387-1.176,2.538-2.597,3.421-4.227
			c1.182-2.182,1.81-4.627,1.815-7.07C89.465,27.74,82.904,21.082,74.827,20.972z"/>
		<path fill="#FFFFFF" d="M113.969,50.595c0,0,0-14.999,0-15.039h-0.003c-0.01-0.782-0.153-1.551-0.425-2.286
			c-0.036-0.112-0.077-0.212-0.123-0.316c-0.128-0.309-0.283-0.612-0.461-0.904c-0.119-0.191-0.245-0.378-0.38-0.559
			c-0.816-1.091-1.922-1.915-3.197-2.382c-0.109-0.042-0.217-0.077-0.325-0.108c-0.663-0.213-1.364-0.32-2.085-0.32
			c-0.942,0-1.856,0.185-2.719,0.551c-0.185,0.077-0.374,0.166-0.563,0.266v0.037l-0.071,0.003c-0.183,0.099-0.355,0.203-0.513,0.31
			v0.043l-0.066,0.002c-0.267,0.179-0.526,0.382-0.768,0.603c-0.338,0.31-0.642,0.644-0.903,0.994
			c-0.136,0.183-0.263,0.369-0.376,0.555c-0.239,0.393-0.435,0.803-0.586,1.222c-0.285,0.767-0.429,1.577-0.429,2.407v14.919H92.21
			V36.032c0-7.913,6.287-14.687,14.016-15.099c0.102-0.007,0.205-0.01,0.308-0.014c0.157-0.004,0.284-0.008,0.412-0.008h0.039
			c0.267,0,0.535,0.007,0.795,0.021c0.263,0.014,0.532,0.036,0.798,0.065c0.124,0.013,0.245,0.03,0.369,0.047l0.075,0.01
			c0.113,0.016,0.228,0.032,0.341,0.05c0.129,0.021,0.258,0.043,0.387,0.068c0.129,0.025,0.258,0.05,0.384,0.079
			c0.128,0.028,0.254,0.057,0.383,0.089c0.253,0.061,0.505,0.13,0.748,0.204c0.122,0.036,0.248,0.075,0.37,0.119
			c0.119,0.035,0.243,0.079,0.363,0.126c0.119,0.042,0.241,0.089,0.359,0.135c0.236,0.093,0.472,0.193,0.705,0.297
			c0,0,0.269,0.125,0.344,0.161l0.343,0.171c0.115,0.058,0.224,0.116,0.336,0.181c0.076,0.041,0.327,0.185,0.327,0.185
			c0.444,0.262,0.87,0.541,1.269,0.831c0.204,0.15,0.401,0.304,0.597,0.462c0.186,0.154,0.369,0.308,0.547,0.467h0.022l0.027,0.042
			c0.18,0.166,0.352,0.331,0.525,0.5c0.153,0.156,0.305,0.314,0.452,0.474c1.096-1.195,2.364-2.19,3.771-2.962
			c0.222-0.122,0.447-0.236,0.672-0.35l0.061-0.031l0.002,0.002c0.429-0.205,0.882-0.396,1.349-0.566l0.015-0.006h0.02
			c0.091-0.038,0.213-0.081,0.335-0.12c1.5-0.499,3.068-0.752,4.658-0.752c0.955,0,1.908,0.092,2.833,0.272
			c0.755,0.148,1.504,0.357,2.224,0.62c0.676,0.249,1.326,0.543,1.934,0.874l0.136,0.068c4.647,2.567,7.571,7.522,7.631,12.93
			l0.001,0.093h-7.769v-0.092c0-3.541-2.647-6.525-6.158-6.941c-0.103-0.014-0.204-0.025-0.308-0.032c-0.001,0-0.002,0-0.003,0
			c-0.027,0-0.061-0.003-0.094-0.007c-0.098-0.007-0.196-0.011-0.296-0.011c-0.055-0.003-0.094-0.003-0.128-0.003
			c-0.002,0-0.005,0-0.007,0c-0.689,0-1.365,0.099-2.009,0.295c-0.049,0.014-0.101,0.032-0.154,0.049
			c-0.166,0.051-0.319,0.107-0.47,0.172c-0.228,0.091-0.464,0.202-0.705,0.331c-0.206,0.11-0.398,0.227-0.571,0.347
			c-0.19,0.129-0.367,0.261-0.542,0.405c-0.171,0.14-0.337,0.292-0.494,0.452c-0.74,0.736-1.311,1.642-1.652,2.621
			c-0.067,0.184-0.116,0.343-0.154,0.501c-0.162,0.593-0.243,1.205-0.243,1.822v14.919H113.969z"/>
		<path fill="#FFFFFF" d="M179.237,50.595V35.676c0-3.856-3.137-6.994-6.994-6.994s-6.994,3.137-6.994,6.994v0.092h-7.771v-0.092
			c0-5.375,2.925-10.33,7.635-12.931c2.164-1.2,4.63-1.834,7.13-1.834c7.972,0,14.594,6.482,14.761,14.45
			c0.003,0.103,0.003,0.207,0.003,0.315v14.919H179.237z"/>
		<linearGradient id="SVGID_3_" gradientUnits="userSpaceOnUse" x1="120.6453" y1="28.3394" x2="142.2715" y2="28.3394">
			<stop  offset="0.2374" style="stop-color:#FFFFFF;stop-opacity:0"/>
			<stop  offset="0.9413" style="stop-color:#6D6968"/>
		</linearGradient>
		<path opacity="0.3" fill="url(#SVGID_3_)" d="M143.492,35.768l-0.001-0.093c-0.06-5.408-2.984-10.363-7.631-12.93l-0.136-0.068
			c-0.608-0.331-1.258-0.625-1.934-0.874c-0.72-0.263-1.469-0.471-2.224-0.62c-0.925-0.181-1.878-0.272-2.833-0.272
			c-1.591,0-3.158,0.253-4.658,0.752c-0.122,0.039-0.244,0.082-0.335,0.12h-0.02l-0.015,0.006c-0.467,0.171-0.921,0.361-1.349,0.566
			l-0.002-0.002l-0.061,0.031c-0.143,0.073-0.285,0.148-0.427,0.223V34.34c0.032-0.163,0.069-0.325,0.112-0.486
			c0.039-0.158,0.088-0.316,0.154-0.501c0.341-0.979,0.912-1.885,1.652-2.621c0.157-0.161,0.323-0.313,0.494-0.452
			c0.175-0.144,0.352-0.276,0.542-0.405c0.174-0.12,0.366-0.237,0.571-0.347c0.24-0.129,0.477-0.24,0.705-0.331
			c0.151-0.065,0.304-0.121,0.47-0.172c0.052-0.017,0.104-0.035,0.154-0.049c0.644-0.196,1.32-0.295,2.009-0.295h0.007
			c0.035,0,0.073,0,0.128,0.003c0.101,0,0.198,0.003,0.296,0.011c0.033,0.004,0.066,0.007,0.094,0.007h0.003
			c0.104,0.007,0.205,0.018,0.308,0.032c3.51,0.416,6.158,3.4,6.158,6.941v0.092H143.492z"/>
		<linearGradient id="SVGID_4_" gradientUnits="userSpaceOnUse" x1="159.5234" y1="28.3394" x2="182.2865" y2="28.3394">
			<stop  offset="0.0587" style="stop-color:#6D6968"/>
			<stop  offset="0.7626" style="stop-color:#FFFFFF;stop-opacity:0"/>
		</linearGradient>
		<path opacity="0.3" fill="url(#SVGID_4_)" d="M178.955,22.551c-2.021-1.045-4.304-1.64-6.712-1.64c-2.5,0-4.966,0.634-7.13,1.834
			c-4.71,2.601-7.635,7.556-7.635,12.931v0.092h7.771v-0.092c0-3.856,3.137-6.994,6.994-6.994c3.175,0,5.861,2.128,6.712,5.032
			V22.551z"/>
		<path fill="#FFFFFF" d="M150.488,55.082c-8.036,0-14.658-6.533-14.761-14.564c-0.003-0.062-0.003-0.131-0.003-0.197V15.107h7.771
			v25.065c0,3.856,3.137,6.994,6.994,6.994c3.855,0,6.99-3.137,6.99-6.994V15.107h7.771V40.32c0,0.066,0,0.135-0.003,0.201
			C165.143,48.548,158.522,55.082,150.488,55.082z"/>
		<path fill="#CEA93A" d="M157.548,10.61c-2.142,0-3.885-1.743-3.885-3.885s1.743-3.885,3.885-3.885s3.885,1.743,3.885,3.885
			S159.69,10.61,157.548,10.61z M143.375,10.61c-2.142,0-3.885-1.743-3.885-3.885s1.743-3.885,3.885-3.885s3.885,1.743,3.885,3.885
			S145.517,10.61,143.375,10.61z"/>
		<path fill="#FFFFFF" d="M28.325,42.346c-1.065,0.304-2.187,0.472-3.349,0.472c-6.743,0-12.209-5.466-12.209-12.209
			s5.466-12.209,12.209-12.209c3.147,0,6.012,1.194,8.176,3.15c1.862-1.877,4.076-3.406,6.521-4.464
			c-3.65-3.966-8.882-6.453-14.697-6.453C13.943,10.634,5,19.577,5,30.609s8.943,19.976,19.976,19.976
			c2.604,0,5.088-0.503,7.368-1.411c0.893-0.356,1.756-0.771,2.581-1.246c-1.805-1.875-3.207-4.136-4.057-6.626
			C30.071,41.742,29.218,42.091,28.325,42.346z"/>
	</g>
</g>
</svg>
