<svg xmlns="http://www.w3.org/2000/svg" xmlns:xlink="http://www.w3.org/1999/xlink" viewBox="0 0 225.36 74.55"><defs><style>.cls-1{fill:none;}.cls-2{isolation:isolate;}.cls-3{clip-path:url(#clip-path);}.cls-4{opacity:0.6;}.cls-5{opacity:0.5;}.cls-6{fill:#e6e6e6;}.cls-7{fill:#f1f1f1;}.cls-8{opacity:0.2;}.cls-9{fill:#999;}.cls-10,.cls-11,.cls-12,.cls-13{opacity:0.4;mix-blend-mode:multiply;}.cls-10{fill:url(#linear-gradient);}.cls-11{fill:url(#linear-gradient-2);}.cls-12{fill:url(#linear-gradient-3);}.cls-13{fill:url(#linear-gradient-4);}.cls-14{fill:#dc1a5b;}</style><clipPath id="clip-path"><rect class="cls-1" x="407.28" y="-643.56" width="640" height="1143.03"/></clipPath><linearGradient id="linear-gradient" x1="198.79" y1="24.02" x2="202.65" y2="34.59" gradientTransform="translate(-0.49 0.86) rotate(0.02)" gradientUnits="userSpaceOnUse"><stop offset="0" stop-color="#201d1e"/><stop offset="0.77" stop-color="#fff" stop-opacity="0"/></linearGradient><linearGradient id="linear-gradient-2" x1="5160.32" y1="24.16" x2="5176.39" y2="24.24" gradientTransform="matrix(-1, 0, 0, 1, 5344.83, 1.99)" gradientUnits="userSpaceOnUse"><stop offset="0.23" stop-color="#fff" stop-opacity="0"/><stop offset="1" stop-color="#201d1e"/></linearGradient><linearGradient id="linear-gradient-3" x1="106.46" y1="31.96" x2="119.67" y2="31.96" gradientTransform="translate(-0.49 0.86) rotate(0.02)" gradientUnits="userSpaceOnUse"><stop offset="0.27" stop-color="#fff" stop-opacity="0"/><stop offset="0.66" stop-color="#757374" stop-opacity="0.62"/><stop offset="1" stop-color="#201d1e"/></linearGradient><linearGradient id="linear-gradient-4" x1="141.84" y1="31.96" x2="159.56" y2="31.96" gradientTransform="translate(-0.49 0.86) rotate(0.02)" gradientUnits="userSpaceOnUse"><stop offset="0" stop-color="#201d1e"/><stop offset="0.73" stop-color="#fff" stop-opacity="0"/></linearGradient></defs><title>logo-1</title><g class="cls-2"><g id="Layer_1" data-name="Layer 1"><g class="cls-3"><g class="cls-4"><g class="cls-5"><path class="cls-6" d="M164.27,40.68V-10a19.53,19.53,0,0,0-9.75-16.9L110.63-52.22a19.49,19.49,0,0,0-19.51,0L47.24-26.89A19.53,19.53,0,0,0,37.49-10V40.68a19.5,19.5,0,0,0,9.75,16.89L91.12,82.91a19.53,19.53,0,0,0,19.51,0l43.89-25.34A19.5,19.5,0,0,0,164.27,40.68Z"/><path class="cls-6" d="M30.91,40.68V-10a19.53,19.53,0,0,0-9.75-16.9L-22.72-52.22a19.49,19.49,0,0,0-19.51,0L-86.12-26.89A19.53,19.53,0,0,0-95.87-10V40.68a19.5,19.5,0,0,0,9.75,16.89l43.89,25.34a19.53,19.53,0,0,0,19.51,0L21.16,57.57A19.5,19.5,0,0,0,30.91,40.68Z"/></g><g class="cls-5"><path class="cls-6" d="M297.64,40.68V-10a19.53,19.53,0,0,0-9.75-16.9L244-52.22a19.51,19.51,0,0,0-19.52,0L180.61-26.89A19.53,19.53,0,0,0,170.86-10V40.68a19.5,19.5,0,0,0,9.75,16.89l43.88,25.34a19.55,19.55,0,0,0,19.52,0l43.88-25.34A19.5,19.5,0,0,0,297.64,40.68Z"/></g><g class="cls-5"><path class="cls-7" d="M230.84,155.66V105a19.53,19.53,0,0,0-9.75-16.9L177.21,62.75a19.55,19.55,0,0,0-19.52,0L113.81,88.09a19.53,19.53,0,0,0-9.75,16.9v50.67a19.5,19.5,0,0,0,9.75,16.89l43.88,25.34a19.55,19.55,0,0,0,19.52,0l43.88-25.34A19.5,19.5,0,0,0,230.84,155.66Z"/><path class="cls-7" d="M97.48,155.66V105a19.51,19.51,0,0,0-9.75-16.9L43.85,62.75a19.53,19.53,0,0,0-19.51,0L-19.54,88.09A19.52,19.52,0,0,0-29.3,105v50.67a19.49,19.49,0,0,0,9.76,16.89l43.88,25.34a19.53,19.53,0,0,0,19.51,0l43.88-25.34A19.48,19.48,0,0,0,97.48,155.66Z"/></g></g><g class="cls-8"><path class="cls-6" d="M266.26,23.94a17.91,17.91,0,0,1-4.14,5.12,18,18,0,0,1-18.75,2.7C239.63,30.12,235,24.6,235,24.6l5.63-7.92h0c2.48,3.62,5.24,7.53,10.07,7.41a8.86,8.86,0,0,0,8.54-8.73A8.83,8.83,0,0,0,248.7,6.77c-3.65.76-5.57,3.59-7.6,6.59-.45.65-7,9.93-7,9.93h0c-5.32,7.29-11.48,10.61-18.32,9.87a18.15,18.15,0,0,1-16-17.91,18.18,18.18,0,0,1,18-17.87h0c5.93,0,11,2.84,15.4,8.64L227.54,14h0c-.1-.16-3.28-4.87-5.43-6.15a8.63,8.63,0,0,0-7.53-.58,8.93,8.93,0,0,0-5.32,8.08A8.72,8.72,0,0,0,216.59,24a7.73,7.73,0,0,0,1,.06c4.36,0,7.58-3.73,9.16-6.07.09-.14.19-.28.28-.43.49-.75,7.12-10.22,7.12-10.22h0A26.58,26.58,0,0,1,240.39.48,18.11,18.11,0,0,1,250.53-2.6h.22a18,18,0,0,1,17.71,18A18.23,18.23,0,0,1,266.26,23.94Z"/></g></g><path class="cls-9" d="M211.87,21.1h7.38L203.94,55h-7.38l6-13.34L192.32,21.09h7.53l6.3,12.66Z"/><polygon class="cls-10" points="202.5 41.83 205.78 41.83 205.78 33.02 199.85 21.09 192.32 21.09 202.58 41.67 202.5 41.83"/><path class="cls-9" d="M187.25,38.71a4,4,0,0,0,2.76.93,7.57,7.57,0,0,0,2.73-.53v5.62a23.3,23.3,0,0,1-2.59.66,14.87,14.87,0,0,1-2.74.26,11.22,11.22,0,0,1-3-.39,6.69,6.69,0,0,1-2.54-1.34,6.6,6.6,0,0,1-1.78-2.55,10.24,10.24,0,0,1-.66-3.93V27.12H166v-6h13.51V10.61h6.75v10.5h13.65l3,6H186.2v8.93A3.35,3.35,0,0,0,187.25,38.71Z"/><rect class="cls-11" x="169.61" y="21.11" width="16.72" height="6.01"/><path class="cls-9" d="M169.28,18.08a3.67,3.67,0,0,1-3.72-3.71,3.65,3.65,0,0,1,1.08-2.66,3.72,3.72,0,0,1,5.28,0A3.68,3.68,0,0,1,173,14.37,3.62,3.62,0,0,1,171.92,17,3.58,3.58,0,0,1,169.28,18.08Z"/><path class="cls-9" d="M172.64,45.65H165.9V21.11h6.75Z"/><path class="cls-9" d="M122.64,27.91a13.14,13.14,0,0,0-2.71-4.05,12.7,12.7,0,0,0-4-2.74,12.22,12.22,0,0,0-4.88-1,12.36,12.36,0,0,0-4.94,1,12.7,12.7,0,0,0-4,2.74c-.12.12-.22.25-.34.38-.11-.13-.22-.26-.34-.38a12.59,12.59,0,0,0-4-2.74,12,12,0,0,0-4.88-1,12.19,12.19,0,0,0-4.94,1c-.31.14-.61.29-.91.45l-.73-1.7H79.81V45.61h6.82v-13a7.69,7.69,0,0,1,.45-2.16,6.92,6.92,0,0,1,1.27-2.22,6.12,6.12,0,0,1,1.88-1.52,5,5,0,0,1,2.3-.56,4.8,4.8,0,0,1,2.27.56,6.25,6.25,0,0,1,1.85,1.52,7.23,7.23,0,0,1,1.27,2.22,7.57,7.57,0,0,1,.46,2.67V45.62h6.76V33.09a8,8,0,0,1,.46-2.67,7.37,7.37,0,0,1,1.28-2.22,6.09,6.09,0,0,1,1.88-1.51,4.79,4.79,0,0,1,2.29-.56,4.69,4.69,0,0,1,2.28.56,6.21,6.21,0,0,1,1.85,1.51,7.28,7.28,0,0,1,1.27,2.23,7.92,7.92,0,0,1,.47,2.74V35.6l6.75,10V32.87A12.39,12.39,0,0,0,122.64,27.91Z"/><path class="cls-12" d="M122.64,27.91a13.14,13.14,0,0,0-2.71-4.05,12.7,12.7,0,0,0-4-2.74,12.22,12.22,0,0,0-4.88-1,12.36,12.36,0,0,0-4.94,1l-.58.29v9.23l.06-.21a7.37,7.37,0,0,1,1.28-2.22,6.09,6.09,0,0,1,1.88-1.51,4.79,4.79,0,0,1,2.29-.56,4.69,4.69,0,0,1,2.28.56,6.21,6.21,0,0,1,1.85,1.51,7.28,7.28,0,0,1,1.27,2.23,7.92,7.92,0,0,1,.47,2.74V35.6l6.75,10V32.87A12.39,12.39,0,0,0,122.64,27.91Z"/><path class="cls-9" d="M137.43,45.63s0-11,0-12.75a12.35,12.35,0,0,1,1-5,13,13,0,0,1,2.72-4.06,12.8,12.8,0,0,1,4-2.73,12.22,12.22,0,0,1,4.94-1,12.05,12.05,0,0,1,4.89,1,12.66,12.66,0,0,1,4,2.74,13.22,13.22,0,0,1,2.72,4.06,12.34,12.34,0,0,1,1,5V45.64H156V33.18a7.92,7.92,0,0,0-.46-2.74,7.23,7.23,0,0,0-1.27-2.22,6.41,6.41,0,0,0-1.86-1.52,4.8,4.8,0,0,0-2.27-.56,5,5,0,0,0-2.3.56,6.24,6.24,0,0,0-1.88,1.52,7.11,7.11,0,0,0-1.27,2.22,7.92,7.92,0,0,0-.47,2.74v2.43Z"/><path class="cls-13" d="M155.17,21.22l-.18-.09a12.05,12.05,0,0,0-4.89-1,12.22,12.22,0,0,0-4.94,1,12.8,12.8,0,0,0-4,2.73,13,13,0,0,0-2.72,4.06,12.35,12.35,0,0,0-1,5c0,1.76,0,12.75,0,12.75l6.75-10V33.18a7.92,7.92,0,0,1,.47-2.74,7.11,7.11,0,0,1,1.27-2.22,6.24,6.24,0,0,1,1.88-1.52,5,5,0,0,1,2.3-.56,4.8,4.8,0,0,1,2.27.56,6.41,6.41,0,0,1,1.86,1.52,7.18,7.18,0,0,1,.93,1.45Z"/><path class="cls-9" d="M136.74,14.25h7.42V36.39a12.13,12.13,0,0,1-1.08,5,13.49,13.49,0,0,1-2.94,4.2,14.18,14.18,0,0,1-4.34,2.88,13.54,13.54,0,0,1-10.6,0,14.25,14.25,0,0,1-4.33-2.88A13.91,13.91,0,0,1,118,41.36a12,12,0,0,1-1.07-5V14.24h7.43V34.91a7.72,7.72,0,0,0,.48,2.77A7.81,7.81,0,0,0,126.11,40a6.1,6.1,0,0,0,2,1.59,5.26,5.26,0,0,0,4.84,0,6.64,6.64,0,0,0,2-1.58,7.64,7.64,0,0,0,1.34-2.3,7.86,7.86,0,0,0,.49-2.76Z"/><path class="cls-14" d="M125.18,4.84a3.22,3.22,0,0,1,2.36,1,3.26,3.26,0,0,1,1,2.38,3.31,3.31,0,0,1-1,2.39,3.16,3.16,0,0,1-2.36,1,3.22,3.22,0,0,1-2.38-1,3.26,3.26,0,0,1-1-2.4,3.21,3.21,0,0,1,1-2.37A3.26,3.26,0,0,1,125.18,4.84Z"/><path class="cls-14" d="M135.83,4.85a3.21,3.21,0,0,1,2.36,1,3.26,3.26,0,0,1,1,2.38,3.29,3.29,0,0,1-1,2.4,3.1,3.1,0,0,1-2.35,1,3.36,3.36,0,0,1-3.37-3.38,3.24,3.24,0,0,1,1-2.38A3.3,3.3,0,0,1,135.83,4.85Z"/><path class="cls-9" d="M25.57,36.81c-.23.13-.45.26-.67.37a10.64,10.64,0,0,1-4.6,1.07,9,9,0,0,1-3.79-.83,9.7,9.7,0,0,1-3.1-2.28,10.67,10.67,0,0,1-2.07-3.34,10.92,10.92,0,0,1-.76-4.11,11.1,11.1,0,0,1,.76-4.13,10.41,10.41,0,0,1,2.08-3.35A9.89,9.89,0,0,1,16.52,18a8.77,8.77,0,0,1,3.79-.83,11.27,11.27,0,0,1,3.84.66A11.86,11.86,0,0,1,28,20.37l4.3-5.23a18.19,18.19,0,0,0-5.79-4.06,16.24,16.24,0,0,0-6.23-1.22,16,16,0,0,0-6.65,1.41,17.07,17.07,0,0,0-5.42,3.86A18.62,18.62,0,0,0,4.6,20.8a17.64,17.64,0,0,0-1.35,6.89A18.53,18.53,0,0,0,4.54,34.6a18,18,0,0,0,3.57,5.7,17.29,17.29,0,0,0,5.35,3.89,15.36,15.36,0,0,0,6.59,1.44,16.36,16.36,0,0,0,7.6-1.9,14.69,14.69,0,0,0,1.66-1A14.8,14.8,0,0,1,25.57,36.81Z"/><path class="cls-14" d="M75.29,38.72a13,13,0,0,1-3.07,3.8,13.34,13.34,0,0,1-13.9,2,15.6,15.6,0,0,1-6.19-5.3l.22-.3,4-5.58h0c1.83,2.69,3.88,5.59,7.46,5.49a6.57,6.57,0,0,0,6.34-6.47A6.55,6.55,0,0,0,62.27,26c-2.7.57-4.13,2.66-5.64,4.89-.32.48-.66,1-1,1.46h0l-4.18,5.91h0c-3.94,5.4-8.51,7.86-13.58,7.31A13.3,13.3,0,0,1,39.3,19h0c4.4,0,8.15,2.1,11.42,6.41-.07.1-.15.2-.22.31l-3.94,5.57h0c-.08-.12-.15-.23-.24-.35a12.92,12.92,0,0,0-3.79-4.2A6.39,6.39,0,0,0,37,26.33a6.63,6.63,0,0,0-3.95,6,6.48,6.48,0,0,0,5.44,6.44,5.74,5.74,0,0,0,.71,0c3.24,0,5.62-2.76,6.79-4.49l.22-.32c.36-.56.72-1.12,1.1-1.66h0l4.17-5.92h0a19.6,19.6,0,0,1,4.66-5.08,13.33,13.33,0,0,1,7.52-2.28h.16a13.29,13.29,0,0,1,11.5,19.67Z"/><path class="cls-9" d="M29.53,66.09A3.19,3.19,0,0,1,28.31,65l.81-1a2.4,2.4,0,0,0,2.05,1.2,1.55,1.55,0,0,0,1.25-.52,2.4,2.4,0,0,0,.43-1.53V57.51H29.3V56.26h4.93v6.85a3.58,3.58,0,0,1-.78,2.51,2.91,2.91,0,0,1-2.28.85A3.63,3.63,0,0,1,29.53,66.09Z"/><path class="cls-9" d="M43.81,58.71v7.64H42.53V65.2a2.64,2.64,0,0,1-1.07.91,3.19,3.19,0,0,1-1.45.33,3.15,3.15,0,0,1-2.33-.84,3.37,3.37,0,0,1-.86-2.49v-4.4h1.35V63a2.45,2.45,0,0,0,.51,1.68,1.91,1.91,0,0,0,1.49.57,2.18,2.18,0,0,0,1.68-.66,2.68,2.68,0,0,0,.61-1.88V58.71Z"/><path class="cls-9" d="M52.58,59.48A3.4,3.4,0,0,1,53.41,62v4.4H52.07V62.11a2.4,2.4,0,0,0-.52-1.67,1.91,1.91,0,0,0-1.49-.56,2.31,2.31,0,0,0-1.72.65,2.63,2.63,0,0,0-.63,1.89v3.93H46.37V58.71h1.29v1.15a2.68,2.68,0,0,1,1.1-.91,3.73,3.73,0,0,1,1.57-.31A3,3,0,0,1,52.58,59.48Z"/><path class="cls-9" d="M60.07,65.91a2,2,0,0,1-.72.39,3,3,0,0,1-.9.14,2.36,2.36,0,0,1-1.74-.62A2.42,2.42,0,0,1,56.1,64V59.85H54.84V58.71H56.1V57h1.34v1.67h2.13v1.14H57.44V64a1.37,1.37,0,0,0,.3.95,1.11,1.11,0,0,0,.86.33,1.59,1.59,0,0,0,1-.36Z"/><path class="cls-9" d="M62.64,65.93a3.55,3.55,0,0,1-1.38-1.39,4.29,4.29,0,0,1,0-4,3.61,3.61,0,0,1,1.38-1.39,4.25,4.25,0,0,1,4,0A3.68,3.68,0,0,1,68,60.52a4.37,4.37,0,0,1,0,4,3.61,3.61,0,0,1-1.38,1.39,4.1,4.1,0,0,1-4,0Zm3.26-1a2.33,2.33,0,0,0,.89-1,3.27,3.27,0,0,0,0-2.82,2.31,2.31,0,0,0-.89-.94,2.46,2.46,0,0,0-1.28-.33,2.52,2.52,0,0,0-1.28.33,2.37,2.37,0,0,0-.89.94,3.18,3.18,0,0,0,0,2.82,2.4,2.4,0,0,0,.89,1,2.43,2.43,0,0,0,1.28.34A2.38,2.38,0,0,0,65.9,64.89Z"/><path class="cls-9" d="M70.71,66.19a3.72,3.72,0,0,1-1.31-.65L70,64.45a4,4,0,0,0,1.19.58,4.82,4.82,0,0,0,1.41.21c1.18,0,1.76-.34,1.76-1a.68.68,0,0,0-.23-.54,1.42,1.42,0,0,0-.6-.3c-.24-.06-.58-.13-1-.21A11.07,11.07,0,0,1,71,62.82a2.32,2.32,0,0,1-1-.64,1.78,1.78,0,0,1-.41-1.25,2,2,0,0,1,.84-1.67,3.74,3.74,0,0,1,2.26-.62,5.78,5.78,0,0,1,1.48.19,3.83,3.83,0,0,1,1.22.5l-.57,1.1a3.77,3.77,0,0,0-2.15-.61,2.43,2.43,0,0,0-1.3.29.87.87,0,0,0-.45.76.73.73,0,0,0,.26.59,1.46,1.46,0,0,0,.62.32c.25.07.59.14,1,.23a11.74,11.74,0,0,1,1.45.34,2.19,2.19,0,0,1,1,.61,1.76,1.76,0,0,1,.39,1.21,1.94,1.94,0,0,1-.86,1.66,4,4,0,0,1-2.35.61A6.38,6.38,0,0,1,70.71,66.19Z"/><path class="cls-9" d="M86.57,49.8l.33.08.38-.08a1.16,1.16,0,0,1,.3.58,10.3,10.3,0,0,1-1.33,2.79c0,.15.09.23.19.23h1.08a51.63,51.63,0,0,1,5.69-.58l1.05-.16.33-.08a8.26,8.26,0,0,0,1,.08,3.43,3.43,0,0,1,1.31-.24,2.63,2.63,0,0,0,.67.09h.26a.54.54,0,0,0,.27-.07l.11.07a5.39,5.39,0,0,1,1-.18,2.12,2.12,0,0,1,.8.18.94.94,0,0,1,.53-.18h.8a.54.54,0,0,0,.27-.06.48.48,0,0,0,.26.06h.47a2.26,2.26,0,0,0,.53-.06,2.33,2.33,0,0,0,.53.06c-.62.07-.26.11,1.09.11,0,0,0,0,.13,0a.68.68,0,0,1,.38-.15l1.12.06v0l.48.14,2.2-.15.4.06.83-.15.06.17.84-.08h.86c.08,0,.12,0,.12.08s0,0,0-.08l.71-.09a6.29,6.29,0,0,0,.88.09v.25l-.43-.25h.42a2.28,2.28,0,0,0,.58-.09l.13.09,1-.18.31.18a.45.45,0,0,0,.24-.09c.08,0,.13,0,.13.09a9.51,9.51,0,0,1,1-.09h1.33l.4-.09q.15.07.15.18a2,2,0,0,0,.58-.16l.33.16c.09-.06.18,0,.27.08h0v.23h.23c0-.33.09-.49.15-.49H122l.27.49h.33a2.24,2.24,0,0,0,.09-.42s0,0,0,.11l-.15-.18a1.56,1.56,0,0,1,.92.49c.13,0,.2-.09.2-.26h-.2l.16-.17.2,0c0,.37.18.55.43.55,0-.32-.21-.45-.65-.39h1.1l-.1.39h.2a.69.69,0,0,0,.49-.24.76.76,0,0,1,.45.26l.19-.12-.08-.21V52.3s0,.05,0,.05.18,0,.56.31h.27c0-.17.14-.3.41-.39a.57.57,0,0,0,.29.06c-.1.07-.06.11.13.11,0-.06.08,0,.23.07a1.27,1.27,0,0,0,.29-.09h.24l.09-.15h.3a1.37,1.37,0,0,1,0,.27l.15.17a.86.86,0,0,1-.44-.2V52.4l.13.09c-.47.15-.72.22-.75.22h-.33a3.33,3.33,0,0,1-.62-.07l-.27.16a3.51,3.51,0,0,0-.71-.09h-.08c-.32.2-.47.24-.47.12a.83.83,0,0,0-.4-.12.58.58,0,0,1-.32.17l-.38-.1V53h-.43V52.8h-.13a1.8,1.8,0,0,1-1,.24q0-.09-.3-.09h-.12a3.83,3.83,0,0,1-.93.17l-.48-.08-.25.15-.33-.07a5.46,5.46,0,0,0-.87.16c-.62-.11-1-.21-1-.33h-.12q-.21.24-.3.24a.72.72,0,0,0-.41-.15h-.07a4.2,4.2,0,0,0-.93.39l-.12-.07H115a3.36,3.36,0,0,0-.58.07.61.61,0,0,0-.28-.07q-.39,0-.39.12a.85.85,0,0,0-.48-.12h-.4a3.17,3.17,0,0,0-.53.16H112a2.19,2.19,0,0,1-.6-.16l-.93.24a.39.39,0,0,1-.18-.08q-2.05.15-3.48.15h-.27a2.56,2.56,0,0,0-.6.09l-.31-.16-2,.16-.33-.09c-.17.07-.25.12-.25.16l-.62-.07h-.93a4.07,4.07,0,0,0-1,.17.48.48,0,0,1-.31-.09L98,54l-.39-.09a2.48,2.48,0,0,1-.67.17L96.25,54q-4.31.26-11,1a3.13,3.13,0,0,1-.43.82,17,17,0,0,1-1.07,2.32c-.84,2.55-1.26,3.89-1.26,4a.81.81,0,0,0,.06.24,7.22,7.22,0,0,0-.2,1.68v.72a1.06,1.06,0,0,0,1.12,1q1.08,0,4-2A15.15,15.15,0,0,0,89,62.71,24.36,24.36,0,0,0,91,60l.1.15A6.49,6.49,0,0,1,90.55,62a12,12,0,0,1-3,3.05,5.75,5.75,0,0,1-1.26,1,5.36,5.36,0,0,1-2.9,1.2,3,3,0,0,1-2-1,1.51,1.51,0,0,0-.33-.79l.06-.14v-.17a1,1,0,0,0-.2-.58v-.14l.14-.24V63.7a5.86,5.86,0,0,1,.06-.74.66.66,0,0,1-.06-.22A15.56,15.56,0,0,1,81.82,60a2.86,2.86,0,0,1,.54-1.53,3.72,3.72,0,0,1,.6-1.59,3.81,3.81,0,0,0,.46-1.2.45.45,0,0,1-.23-.09l-5.74,1.13A1.54,1.54,0,0,1,76.7,56l.07-.41.16-.38q5.47-1.25,7.61-1.48a5.36,5.36,0,0,0,1-1.95,12.31,12.31,0,0,0,.92-1.9Zm35.3,2.5h.36v.36l-.18.43a1.06,1.06,0,0,0-.52-.17C121.53,52.55,121.65,52.35,121.87,52.3Zm4.56.05h-.3V52h.3Zm2.39-.2v.6h-.56v-.6Zm.87.36h-.3v-.36h.3Zm.27.05a.32.32,0,0,1-.3-.33h.3Zm.33,0s0,0,0,.14l.58-.16h-.78Zm1.1-.19v.1s0,.06-.14.17h0C131.11,52.5,131.17,52.4,131.39,52.37Zm.63.46h-.3v-.36h.3Zm1.85-.41h-.35v0h.16v.06l0,.07Z"/><path class="cls-9" d="M95.83,58.34c.23,0,.46.29.68.87,0,.48-.6,1.66-1.81,3.55a5.63,5.63,0,0,0-.62,2.16c0,.19.11.29.33.29h.29c1-.33,2.54-1.66,4.61-4a.55.55,0,0,0,.51-.58q0-.12.12-.12h0c.06,0,.11.06.17.17v.17a2.47,2.47,0,0,1-.62,1.05,9.43,9.43,0,0,1-2.18,2.76,8,8,0,0,1-2.61,1.7h-.22a1.7,1.7,0,0,1-1.76-1.12c0-.11,0-.17,0-.17,0-.15.07-.22.11-.22l-.06-.12v-.41a8.19,8.19,0,0,1,1.59-3,2.76,2.76,0,0,1,.55-.8,2.54,2.54,0,0,0,.35-.88v-.07H95a5,5,0,0,1-2.43.77h0a8.33,8.33,0,0,0-.91,1.17.72.72,0,0,1-.34.1h0c-.2,0-.37-.15-.51-.46q0-.32.51-.63a.86.86,0,0,1,.1-.3L91,59.74v-.07a.73.73,0,0,1,.38-.58h.4l.85-.22.4.29a13.33,13.33,0,0,0,2.38-.77A2.14,2.14,0,0,0,95.83,58.34Z"/><path class="cls-9" d="M102.94,59.31a2.44,2.44,0,0,1,1.54.83c.57,0,.86.2.86.61a.07.07,0,0,1,.07.07,6.55,6.55,0,0,0-.93,3V64c.08.41.19.61.33.61h.4c.62,0,1.66-.86,3.13-2.6,0-.13.31-.4.93-.83a1.22,1.22,0,0,1,.53-.75h.07a.78.78,0,0,0,.13.41,7.71,7.71,0,0,1-1.18,2.23c-1.48,2-2.72,3-3.75,3A2.22,2.22,0,0,1,103,64.39v-.14h-.2c-1.62,1.42-2.88,2.13-3.79,2.13h-.2a1.64,1.64,0,0,1-1.67-1.44V64.8q0-1.87,2.73-3.91l1.87-1.23C101.75,59.5,102.15,59.38,102.94,59.31Zm-4.32,5.28v.48c0,.09,0,.14.13.14h.13c.81,0,1.9-.66,3.27-2a3.74,3.74,0,0,0,1.26-2.06V61.1c0-.55-.2-.83-.6-.83a8.84,8.84,0,0,0-3.46,2.61A4.12,4.12,0,0,0,98.62,64.59Z"/><path class="cls-9" d="M112.34,58.47c.8.16,1.2.57,1.2,1.24-.22,1.09-.51,1.64-.87,1.64a.68.68,0,0,0-.2.07.57.57,0,0,1-.53-.41,4.46,4.46,0,0,0,.27-1.3.13.13,0,0,0-.14-.14c-.8.11-1.2.37-1.2.75a5.24,5.24,0,0,0,1.2,3.16l.14.07a9.45,9.45,0,0,1,1.33-.89,8,8,0,0,1,3.76-1.48,2.63,2.63,0,0,1,1.26-.55l.07.14V61c-.19,0-.63.32-1.33,1l-4.23,2.43-.26.34a4.13,4.13,0,0,1,.53,2.06,4,4,0,0,1-1.8,2.33,5,5,0,0,1-2.6,1.17c-1.19-.18-1.79-.6-1.79-1.24v-.34c0-.38.33-.86,1-1.44a18.11,18.11,0,0,1,3-2.74l.07-.14v-.14a7.46,7.46,0,0,1-1.6-3.77c.09-1.05.42-1.58,1-1.58A8.13,8.13,0,0,1,112.34,58.47ZM108.48,68.9V69c0,.13.18.2.46.2a4.42,4.42,0,0,0,2.73-1.58,7.17,7.17,0,0,1,.4-.89v-.55a2.44,2.44,0,0,0-.13-.61h-.27Q108.48,68.21,108.48,68.9Z"/><path class="cls-9" d="M121.42,58.51h.25c.7.09,1,.39,1,.89v.15c-.3,1.18-.68,1.77-1.12,1.77s-.62-.22-.77-.65a4.72,4.72,0,0,0,.25-.91,10.73,10.73,0,0,0-2.66,2.35,6.47,6.47,0,0,0-.71,1.78v.5c0,.44.49.67,1.49.67a8.56,8.56,0,0,0,5.91-3.57c.15,0,.54-.31,1.18-.94h.22l.1.74c-.09,0-.39.39-.92,1.19-.11,0-.51.43-1.19,1.29A7.57,7.57,0,0,1,119,66.31h-.32a2.27,2.27,0,0,1-2.34-2v-.2a4.79,4.79,0,0,1,1.86-3.36C119.87,59.27,121,58.51,121.42,58.51Zm4.69,2.71h0l.15-.24v0h0S126.19,61.09,126.11,61.22Z"/><path class="cls-9" d="M128.88,59.07a1.36,1.36,0,0,1,.92.59,2.73,2.73,0,0,1-.45,1.59c-1.09,1.3-2,2-2.68,2.14l-.75.36V64c0,.53.45.79,1.35.79a7,7,0,0,0,1.82-.42,7.8,7.8,0,0,0,2.54-2.3,4,4,0,0,1,1.06-1.39h.25a.61.61,0,0,0,.12.39v.16c-1.14,2.67-2.85,4.24-5.11,4.69a2.46,2.46,0,0,0-.72.12,2.72,2.72,0,0,1-2.76-2.12l-.08-1h.28A5.45,5.45,0,0,1,126.83,60,4,4,0,0,1,128.88,59.07Zm-2.76,3.31a4.37,4.37,0,0,0,2.63-2.16v-.07s0-.07,0-.07a4.82,4.82,0,0,0-2.56,2.3Zm7.17-2,.17.34-.27.14h-.4v-.38Z"/><path class="cls-9" d="M133.33,60c.44,0,.66.21.69.53v.12a1.69,1.69,0,0,1-.35,1.15v.07h0a4.93,4.93,0,0,1,2-1.59q0-.12.6-.42h.4q1.32,0,1.47,1.65A1.33,1.33,0,0,0,138,62l.07.12a8,8,0,0,0-.37,2.11l0,.43c0,.06.07.11.2.17h.11a7.92,7.92,0,0,0,3-1.53,10.14,10.14,0,0,0,1.95-2,1.81,1.81,0,0,1,.58-.59.31.31,0,0,1,.33.07c.1.08,0,.33-.2.73a12.4,12.4,0,0,1-1.9,2.44,11.33,11.33,0,0,1-2.26,1.67,3.72,3.72,0,0,1-1.21.41q-1.8-.18-1.92-1.35a1.2,1.2,0,0,1-.08-.36,15.73,15.73,0,0,1,.6-2.83l0-.46a.13.13,0,0,0-.14-.12h-.21a19.36,19.36,0,0,0-2,1.76q-.08,0-.51.66c-.16.05-.5.52-1,1.4-.14,0-.28.37-.41,1a5.25,5.25,0,0,1-.85,1.36s-.06.07-.22.12c-.54-.12-.83-.33-.86-.65v-.06a12.19,12.19,0,0,1,.95-3.31,18,18,0,0,0,1.26-3A.75.75,0,0,1,133.33,60Z"/><path class="cls-9" d="M152.53,53c.75.22,1.13.54,1.13,1a5,5,0,0,1-1.13,2.5l.08.15a14.36,14.36,0,0,1-2.81,4.69c-.81.92-1.21,1.52-1.21,1.79v.23c0,.89.3,1.34.91,1.34q2,.07,4.89-2.46,1.63-1.83,1.89-1.83a3.82,3.82,0,0,1-.82,2,20.15,20.15,0,0,1-2.31,2.08A6.35,6.35,0,0,1,149.73,66a3,3,0,0,1-2.58-1.64,8.21,8.21,0,0,1-3,1.64h-.92c-1.05-.29-1.58-.84-1.58-1.64a.55.55,0,0,1-.08-.31c.25-1.15,1.21-2.38,2.88-3.67a4.5,4.5,0,0,1,2.34-.86,3.57,3.57,0,0,0,.92.24h.15a9.2,9.2,0,0,1,1.43-3.27,6.19,6.19,0,0,1,1.3-2C151.4,53.5,152.05,53,152.53,53Zm-9.47,10.94v.53c0,.18.28.28.83.33a6,6,0,0,0,2.65-1.65,2.6,2.6,0,0,0,.61-.94,2,2,0,0,1-.38-1.23v-.33a.56.56,0,0,1-.23-.07c-.92,0-2,.89-3.25,2.66A2.3,2.3,0,0,0,143.06,63.94Zm6.29-4.37h.07a7.46,7.46,0,0,0,1.53-2l1.13-2.33v-.31q-1,.24-2.73,4.44Z"/><path class="cls-9" d="M158.78,59.07a1.33,1.33,0,0,1,.91.59,2.73,2.73,0,0,1-.45,1.59c-1.08,1.3-2,2-2.67,2.14l-.75.36V64c0,.53.45.79,1.34.79a7,7,0,0,0,1.83-.42,7.8,7.8,0,0,0,2.54-2.3,4,4,0,0,1,1.06-1.39h.25a.61.61,0,0,0,.12.39v.16c-1.15,2.67-2.85,4.24-5.11,4.69a2.41,2.41,0,0,0-.72.12,2.72,2.72,0,0,1-2.76-2.12l-.08-1h.28A5.4,5.4,0,0,1,156.73,60,4,4,0,0,1,158.78,59.07ZM156,62.38a4.37,4.37,0,0,0,2.63-2.16v-.07s0-.07,0-.07a4.82,4.82,0,0,0-2.56,2.3Zm7.17-2,.17.34-.27.14h-.4v-.38Z"/><path class="cls-9" d="M171.72,59.66c.54.17.82.46.85.89a11.24,11.24,0,0,0-.7,3.36l0,.34c0,.28.13.41.37.41h.11c.74,0,1.81-.82,3.23-2.33a12.13,12.13,0,0,0,1.32-1.85l.06.14a1.57,1.57,0,0,1-.16.89v.13h.23a14.25,14.25,0,0,1-1.76,2.44c-1.08,1.26-2,1.88-2.72,1.88a1.76,1.76,0,0,1-1.68-1.23,5.89,5.89,0,0,1-.11-.75l0-.35a16.37,16.37,0,0,1,.65-2.47.46.46,0,0,0-.18-.06,8.58,8.58,0,0,0-3,3.63.91.91,0,0,1-.5.27h-.1c-.21,0-.37-.13-.49-.41v-.13c0-.39.27-.89.88-1.51a5.6,5.6,0,0,1,.33-1.1l-.06-.82c0-.12-.18-.19-.52-.21-1.31.43-3,2.07-5.13,4.94-.35,1.1-.68,1.65-1,1.65h-.11c-.43-.11-.65-.34-.67-.69a11.76,11.76,0,0,0,1.86-4.66c-.21-1-.17-1.54.12-1.75h.6l.4.56c-.08,1.05-.11,1.63-.1,1.73v.07h.12a8.66,8.66,0,0,1,2.21-2.12q0-.18,1.38-.69h.35a1.75,1.75,0,0,1,1.56,1.24h0C170.61,60.14,171.36,59.66,171.72,59.66Z"/><path class="cls-9" d="M178.8,59.9l.22-.06c1.34-.11,2.08,0,2.21.48.07,0,.26.32.58,1a3.56,3.56,0,0,1-.07,1.37v-.05h0a16.5,16.5,0,0,0,2.91-2.08,1.85,1.85,0,0,1,.54-.26c.16.55-.72,1.63-2.67,3.25a4.66,4.66,0,0,1-1.41.68A13.07,13.07,0,0,1,179.22,66a3.22,3.22,0,0,0-.44.17,2.3,2.3,0,0,1-2.48-.9c-.14-.26-.28-.54-.41-.84a2.93,2.93,0,0,1,.93-3.45,2.83,2.83,0,0,1,1.61-.91S178.54,60,178.8,59.9ZM177,63.79l.05.15c.21.71.46,1.09.73,1.15a1.39,1.39,0,0,0,.75,0c.61-.38.94-.64,1-.77h0a3.28,3.28,0,0,1-1.91-1.83s-.07,0-.1-.17a2.63,2.63,0,0,0-.07-.59h0A2.33,2.33,0,0,0,177,63.79Zm1.78-1.61c.37.84.86,1.19,1.47,1l.16,0a2.22,2.22,0,0,0,.49-1.41c-.3-.77-.66-1.11-1.07-1,0-.07-.09-.08-.2,0A1,1,0,0,0,178.73,62.18Z"/><path class="cls-9" d="M187.4,58.47c.79.16,1.19.57,1.19,1.24-.22,1.09-.51,1.64-.86,1.64a.59.59,0,0,0-.2.07A.57.57,0,0,1,187,61a4.74,4.74,0,0,0,.26-1.3c0-.09,0-.14-.13-.14-.8.11-1.2.37-1.2.75a5.24,5.24,0,0,0,1.2,3.16l.13.07a10.87,10.87,0,0,1,1.33-.89,8.1,8.1,0,0,1,3.77-1.48,2.63,2.63,0,0,1,1.26-.55l.07.14V61c-.19,0-.64.32-1.33,1l-4.23,2.43-.27.34a4,4,0,0,1,.53,2.06,4,4,0,0,1-1.79,2.33,5.08,5.08,0,0,1-2.6,1.17c-1.2-.18-1.8-.6-1.8-1.24v-.34c0-.38.34-.86,1-1.44a18.75,18.75,0,0,1,3-2.74l.06-.14v-.14a7.52,7.52,0,0,1-1.59-3.77c.09-1.05.42-1.58,1-1.58A8.21,8.21,0,0,1,187.4,58.47ZM183.53,68.9V69c0,.13.18.2.47.2a4.47,4.47,0,0,0,2.73-1.58,5.72,5.72,0,0,1,.4-.89v-.55a3,3,0,0,0-.13-.61h-.27Q183.54,68.21,183.53,68.9Z"/></g></g></svg>